<svg width="60" height="14" viewBox="0 0 60 14" fill="none" xmlns="http://www.w3.org/2000/svg">
<path d="M15.0483 8.22714L12.4012 10.8839C12.177 11.109 12.1772 11.4749 12.4016 11.6997L14.4245 13.7254C14.7692 14.0657 15.3328 14.0657 15.6776 13.7254L21.8776 7.60605C22.2223 7.26579 22.2223 6.70945 21.8776 6.36919L15.6776 0.2552C15.3328 -0.0850667 14.7692 -0.0850667 14.4245 0.2552L12.4016 2.28094C12.1772 2.50575 12.177 2.87163 12.4012 3.09669L15.0483 5.75352C15.7378 6.43403 15.7378 7.54663 15.0483 8.22714Z" fill="#0A6E5C"/>
<path d="M7.08784 8.22714L9.73491 10.8839C9.95917 11.109 9.95895 11.4749 9.73447 11.6997L7.71164 13.7254C7.36689 14.0657 6.80329 14.0657 6.45854 13.7254L0.25856 7.60605C-0.0861867 7.26579 -0.0861867 6.70945 0.25856 6.36919L6.45854 0.2552C6.80329 -0.0850667 7.36689 -0.0850667 7.71164 0.2552L9.73447 2.28094C9.95895 2.50575 9.95917 2.87163 9.73491 3.09669L7.08784 5.75352C6.39834 6.43403 6.39834 7.54663 7.08784 8.22714Z" fill="#21BF73"/>
<path d="M7.78217 7.49284C7.50295 7.21366 7.50295 6.76104 7.78217 6.48186L10.5624 3.70157C10.8416 3.42239 11.2942 3.42239 11.5734 3.70157L14.3537 6.48186C14.6329 6.76104 14.6329 7.21366 14.3537 7.49284L11.5734 10.2731C11.2942 10.5523 10.8416 10.5523 10.5624 10.2731L7.78217 7.49284Z" fill="#21BF73"/>
<path d="M33.9932 11.1902H32.0175L30.9279 8.33984C30.8401 8.11532 30.7044 7.95896 30.5208 7.87079C30.3452 7.78258 30.1217 7.73846 29.8503 7.73846H28.6409V11.1902H26.7969V2.62695H30.5926C31.5825 2.62695 32.3328 2.84344 32.8437 3.27642C33.3546 3.70939 33.61 4.33079 33.61 5.14063C33.61 5.70991 33.4584 6.19901 33.1551 6.60794C32.8597 7.01684 32.4326 7.30951 31.8738 7.48589C32.3767 7.59013 32.74 7.93895 32.9635 8.53225L33.9932 11.1902ZM30.3172 6.30723C30.8521 6.30723 31.2432 6.21906 31.4907 6.04265C31.7381 5.85823 31.8618 5.57359 31.8618 5.18873C31.8618 4.80387 31.7381 4.52321 31.4907 4.34683C31.2432 4.16241 30.8521 4.07021 30.3172 4.07021H28.6169V6.30723H30.3172Z" fill="#22272F"/>
<path d="M41.2378 5.08801V11.1857H39.4537V10.2837C39.2701 10.5964 39.0107 10.841 38.6754 11.0173C38.3401 11.1938 37.9609 11.282 37.5379 11.282C37.011 11.282 36.544 11.1536 36.1369 10.8971C35.7378 10.6405 35.4225 10.2757 35.191 9.80263C34.9675 9.32152 34.8557 8.76828 34.8557 8.14287C34.8557 7.51745 34.9675 6.96019 35.191 6.47109C35.4225 5.98198 35.7418 5.60516 36.1489 5.34058C36.556 5.06795 37.019 4.93164 37.5379 4.93164C37.9609 4.93164 38.3401 5.02383 38.6754 5.20824C39.0107 5.39265 39.2701 5.64125 39.4537 5.95393V5.08801H41.2378ZM38.0647 9.89884C38.5117 9.89884 38.855 9.74649 39.0945 9.4418C39.3339 9.13711 39.4537 8.69611 39.4537 8.11884C39.4537 7.54152 39.3339 7.10052 39.0945 6.79583C38.855 6.48314 38.5117 6.32678 38.0647 6.32678C37.6177 6.32678 37.2704 6.48712 37.023 6.80785C36.7755 7.12857 36.6518 7.57359 36.6518 8.14287C36.6518 8.71214 36.7715 9.14912 37.011 9.45382C37.2585 9.75051 37.6097 9.89884 38.0647 9.89884Z" fill="#22272F"/>
<path d="M50.1204 4.93164C50.8151 4.93164 51.3297 5.1441 51.6653 5.56907C52.0082 5.986 52.1799 6.62745 52.1799 7.49342V11.1857H50.3721V7.55354C50.3721 7.12857 50.3039 6.82388 50.1685 6.63947C50.0326 6.44706 49.8093 6.35085 49.4978 6.35085C49.1308 6.35085 48.8473 6.47912 48.6476 6.73571C48.448 6.99226 48.3484 7.35309 48.3484 7.81812V11.1857H46.5401V7.55354C46.5401 7.13661 46.4684 6.83192 46.3247 6.63947C46.1892 6.44706 45.9695 6.35085 45.6663 6.35085C45.2988 6.35085 45.0118 6.47912 44.8038 6.73571C44.6046 6.99226 44.5046 7.35309 44.5046 7.81812V11.1857H42.6966V6.83192C42.6966 6.18247 42.6647 5.60114 42.6008 5.08801H44.301L44.4089 6.00204C44.5924 5.65728 44.848 5.39265 45.1752 5.20824C45.5103 5.02383 45.8939 4.93164 46.3247 4.93164C47.2269 4.93164 47.8254 5.30846 48.1207 6.0622C48.3204 5.7174 48.5956 5.44477 48.9469 5.24433C49.306 5.03588 49.6975 4.93164 50.1204 4.93164Z" fill="#22272F"/>
<path d="M57.3178 4.93164C57.8368 4.93164 58.2999 5.06795 58.7071 5.34058C59.1139 5.60516 59.4293 5.98198 59.653 6.47109C59.8846 6.96019 59.9999 7.51745 59.9999 8.14287C59.9999 8.76828 59.8885 9.32152 59.6648 9.80263C59.4415 10.2757 59.1261 10.6405 58.7189 10.8971C58.3117 11.1536 57.8447 11.282 57.3178 11.282C56.8949 11.282 56.5157 11.1938 56.1806 11.0173C55.845 10.841 55.5899 10.5964 55.4142 10.2837V13.9817H53.6059V6.83192C53.6059 6.18247 53.574 5.60114 53.5103 5.08801H55.2107L55.3304 6.09828C55.4898 5.73745 55.7454 5.45281 56.0967 5.24433C56.4558 5.03588 56.863 4.93164 57.3178 4.93164ZM56.8031 9.89884C57.2501 9.89884 57.5935 9.75051 57.8329 9.45382C58.0723 9.14912 58.192 8.71214 58.192 8.14287C58.192 7.57359 58.0684 7.12857 57.8207 6.80785C57.5812 6.48712 57.2422 6.32678 56.8031 6.32678C56.3562 6.32678 56.0089 6.48314 55.7611 6.79583C55.5217 7.10052 55.402 7.54152 55.402 8.11884C55.402 8.69611 55.5217 9.13711 55.7611 9.4418C56.0089 9.74649 56.3562 9.89884 56.8031 9.89884Z" fill="#22272F"/>
</svg>
