<svg width="74" height="19" viewBox="0 0 74 19" fill="none" xmlns="http://www.w3.org/2000/svg">
<g clip-path="url(#clip0_10359_101753)">
<mask id="mask0_10359_101753" style="mask-type:luminance" maskUnits="userSpaceOnUse" x="0" y="0" width="74" height="19">
<path d="M0.00219727 0.290085H73.9976V18.8267H0.00219727V0.290085Z" fill="white"/>
</mask>
<g mask="url(#mask0_10359_101753)">
<path d="M30.0574 13.8046C29.1377 13.8046 28.3752 13.5963 27.7698 13.1797C27.1643 12.7632 26.7914 12.1341 26.6553 11.2904L28.0631 10.9482C28.1406 11.3541 28.2725 11.6772 28.459 11.9152C28.6454 12.1532 28.878 12.3211 29.1566 12.421C29.4352 12.5209 29.7348 12.5698 30.0574 12.5698C30.5371 12.5698 30.9058 12.4763 31.1635 12.2871C31.4232 12.098 31.551 11.8557 31.551 11.5582C31.551 11.2606 31.4295 11.0417 31.1844 10.9036C30.9393 10.7654 30.579 10.6507 30.0993 10.5614L29.6007 10.4721C29.1126 10.3829 28.6664 10.2532 28.2662 10.0853C27.8661 9.91744 27.5477 9.6837 27.3131 9.38614C27.0784 9.08858 26.9611 8.70603 26.9611 8.24062C26.9611 7.54564 27.2146 7.00794 27.7237 6.62752C28.2328 6.24497 28.9052 6.05585 29.7473 6.05585C30.5895 6.05585 31.2263 6.24076 31.7479 6.61478C32.2717 6.98672 32.611 7.4904 32.7661 8.12375L31.3583 8.52539C31.2703 8.07908 31.0839 7.76456 30.8011 7.58179C30.5183 7.39902 30.1663 7.3055 29.7452 7.3055C29.3242 7.3055 29.012 7.38201 28.7774 7.53503C28.5428 7.68805 28.4255 7.90483 28.4255 8.18112C28.4255 8.47863 28.5407 8.69755 28.769 8.83569C28.9995 8.97384 29.3095 9.07797 29.6991 9.14813L30.2124 9.23738C30.7298 9.32664 31.2054 9.4499 31.6348 9.60927C32.0643 9.76869 32.4037 9.99608 32.6529 10.2936C32.9022 10.5912 33.0258 10.9886 33.0258 11.4838C33.0258 12.217 32.7577 12.7887 32.2193 13.1946C31.6809 13.6005 30.9582 13.8046 30.049 13.8046H30.0574Z" fill="black"/>
<path d="M36.3901 13.8045C35.8726 13.8045 35.4097 13.7152 35.0054 13.5367C34.599 13.3582 34.2763 13.0947 34.0375 12.7482C33.7987 12.4018 33.6793 11.9789 33.6793 11.4837C33.6793 10.9885 33.7987 10.5592 34.0375 10.2277C34.2763 9.89612 34.6052 9.64532 35.02 9.47743C35.4348 9.30953 35.9062 9.22454 36.4341 9.22454H38.6337V8.74848C38.6337 8.3213 38.5059 7.97912 38.2524 7.72197C37.999 7.46482 37.6072 7.33516 37.0793 7.33516C36.5514 7.33516 36.166 7.45842 35.8915 7.70709C35.6171 7.95576 35.4369 8.27667 35.3489 8.6741L33.9412 8.21291C34.0585 7.81549 34.247 7.45629 34.5047 7.13538C34.7645 6.81233 35.108 6.55305 35.5375 6.3554C35.9669 6.15776 36.4865 6.05789 37.0919 6.05789C38.0304 6.05789 38.7678 6.30017 39.3062 6.78684C39.8446 7.27352 40.1127 7.96211 40.1127 8.85474V11.8747C40.1127 12.1723 40.2489 12.321 40.5233 12.321H41.1392V13.6005H40.0101C39.6686 13.6005 39.39 13.5112 39.1742 13.3327C38.9584 13.1542 38.8516 12.9119 38.8516 12.6037V12.5591H38.6316C38.5541 12.7078 38.4368 12.8821 38.2797 13.0798C38.1226 13.2774 37.8942 13.4495 37.5905 13.5919C37.2867 13.7365 36.8866 13.8066 36.388 13.8066L36.3901 13.8045ZM36.61 12.54C37.2155 12.54 37.7057 12.3635 38.0765 12.0107C38.4472 11.658 38.6337 11.1755 38.6337 10.5613V10.4126H36.5221C36.122 10.4126 35.7993 10.4997 35.5542 10.6718C35.3091 10.8461 35.1876 11.1011 35.1876 11.4369C35.1876 11.7727 35.3154 12.0426 35.5689 12.2403C35.8224 12.438 36.1701 12.5378 36.61 12.5378V12.54Z" fill="black"/>
<path d="M42.0214 13.5963V6.26412H43.5024V7.127H43.7371C43.8544 6.81883 44.043 6.59356 44.3006 6.45115C44.5604 6.30666 44.8788 6.23437 45.2601 6.23437H46.1252V7.61794H45.2014C44.7133 7.61794 44.3111 7.75395 43.9989 8.02597C43.6868 8.298 43.5297 8.71669 43.5297 9.28201V13.5963H42.0193H42.0214Z" fill="black"/>
<path d="M49.8353 13.8046C49.2383 13.8046 48.6874 13.6558 48.1781 13.3583C47.6692 13.0607 47.2627 12.6314 46.9548 12.0725C46.6469 11.5114 46.4939 10.8356 46.4939 10.0428V9.81971C46.4939 9.03547 46.6446 8.36176 46.9484 7.79644C47.2522 7.23112 47.6564 6.79968 48.1657 6.50217C48.6746 6.20461 49.2319 6.05585 49.8376 6.05585C50.3067 6.05585 50.7005 6.11536 51.017 6.23436C51.3354 6.35341 51.5949 6.5043 51.8004 6.68707C52.0055 6.86984 52.1627 7.06109 52.2696 7.25874H52.5043V3.18462H54.0145V13.5963H52.5336V12.5549H52.2988C52.1124 12.8716 51.8319 13.1606 51.4569 13.4178C51.0796 13.6749 50.5415 13.8046 49.8376 13.8046H49.8353ZM50.2606 12.4657C50.9161 12.4657 51.4546 12.2531 51.8799 11.826C52.3052 11.3988 52.5167 10.7888 52.5167 9.99608V9.8622C52.5167 9.0801 52.3075 8.47442 51.8863 8.04724C51.4651 7.62006 50.9225 7.40754 50.2583 7.40754C49.5946 7.40754 49.0789 7.62006 48.6536 8.04724C48.2283 8.47442 48.0168 9.07797 48.0168 9.8622V9.99608C48.0168 10.7888 48.2283 11.3988 48.6536 11.826C49.0789 12.2531 49.6133 12.4657 50.2583 12.4657H50.2606Z" fill="black"/>
<path d="M56.4196 5.26745C56.1263 5.26745 55.8792 5.16967 55.68 4.97837C55.479 4.78499 55.3804 4.53421 55.3804 4.22817C55.3804 3.92213 55.4809 3.67135 55.68 3.47796C55.881 3.28455 56.1263 3.18892 56.4196 3.18892C56.7128 3.18892 56.9727 3.28455 57.1673 3.47796C57.3624 3.67135 57.4606 3.92213 57.4606 4.22817C57.4606 4.53421 57.3624 4.78712 57.1673 4.97837C56.9727 5.1718 56.7233 5.26745 56.4196 5.26745ZM55.6572 13.5964V6.26416H57.1673V13.5964H55.6572Z" fill="black"/>
<path d="M58.8223 13.5964V6.26425H60.3036V7.36514H60.538C60.6746 7.06758 60.9194 6.78916 61.2716 6.53201C61.6233 6.27487 62.1472 6.1452 62.8407 6.1452C63.3874 6.1452 63.8735 6.26847 64.2987 6.51714C64.7235 6.76581 65.0588 7.11434 65.3018 7.56492C65.5471 8.01545 65.6686 8.55955 65.6686 9.19285V13.5964H64.158V9.31185C64.158 8.67642 64.0009 8.20883 63.6889 7.90706C63.3769 7.60528 62.9453 7.4544 62.3985 7.4544C61.7722 7.4544 61.2716 7.66265 60.8965 8.07922C60.5192 8.49578 60.3329 9.10146 60.3329 9.89418V13.5985H58.8223V13.5964Z" fill="black"/>
<path d="M70.5663 13.8045C69.8331 13.8045 69.1922 13.6493 68.6455 13.3369C68.0987 13.0245 67.6711 12.5824 67.3632 12.0129C67.0554 11.4433 66.9023 10.7802 66.9023 10.0279V9.84937C66.9023 9.0864 67.0531 8.41904 67.3568 7.8495C67.6606 7.27992 68.0818 6.83786 68.6244 6.52543C69.1666 6.21304 69.7952 6.05789 70.5078 6.05789C71.2199 6.05789 71.8106 6.21304 72.3322 6.52543C72.8561 6.83786 73.2622 7.27139 73.5555 7.8261C73.8487 8.3808 73.9954 9.03111 73.9954 9.77499V10.3552H68.4381C68.4568 10.9991 68.6706 11.5134 69.0748 11.8939C69.4809 12.2764 69.9861 12.4656 70.5914 12.4656C71.1592 12.4656 71.5863 12.3359 71.8736 12.0788C72.1627 11.8216 72.3847 11.5241 72.5396 11.1861L73.7862 11.8407C73.65 12.1191 73.4509 12.4103 73.1933 12.7185C72.9333 13.0266 72.5939 13.2838 72.1751 13.4921C71.7539 13.7003 71.2176 13.8045 70.5621 13.8045H70.5663ZM68.4545 9.17778H72.4578C72.4181 8.62308 72.2235 8.18951 71.8713 7.87712C71.5196 7.56468 71.0605 7.40953 70.4927 7.40953C69.9254 7.40953 69.4645 7.56468 69.1082 7.87712C68.7519 8.18951 68.534 8.62308 68.4568 9.17778H68.4545Z" fill="black"/>
<path d="M23.0941 9.89624L14.4276 18.6885C14.2474 18.8712 13.9311 18.8712 13.7509 18.6885L7.95858 12.81C7.68834 12.5379 7.54171 12.1745 7.54171 11.7898C7.54171 11.4052 7.69044 11.0418 7.95858 10.7697L8.20789 10.5168C8.22671 10.4956 8.25394 10.485 8.2791 10.485C8.30633 10.485 8.33145 10.4956 8.35032 10.5147L13.8243 16.0701C13.9667 16.2125 14.2118 16.2125 14.3543 16.0701L20.5111 9.82186C20.6557 9.67524 20.6557 9.43292 20.5111 9.28629L14.3543 3.03801C14.2118 2.89562 13.9667 2.89349 13.8264 3.03801L0.597147 16.4548C0.494497 16.559 0.352043 16.5866 0.217971 16.5313C0.0838979 16.4739 0.00219727 16.3485 0.00219727 16.2019V2.90199C0.00219727 2.75535 0.0838979 2.62996 0.217971 2.5747C0.349948 2.51732 0.496589 2.54707 0.599239 2.65121L4.18988 6.29393C4.45802 6.56596 4.60674 6.92937 4.60674 7.31405C4.60674 7.69873 4.45802 8.06427 4.18988 8.33629L3.94268 8.58709C3.90707 8.62319 3.83794 8.62319 3.80023 8.58709L2.22278 6.98674C2.15365 6.91662 2.06357 6.91662 2.00491 6.94211C1.94416 6.96765 1.87922 7.03136 1.87922 7.13128V11.9705C1.87922 12.0704 1.94416 12.1342 2.00491 12.1596C2.06357 12.1831 2.15365 12.1851 2.22278 12.115L13.7509 0.421803C13.9227 0.247532 14.2558 0.247532 14.4276 0.421803L23.0941 9.21405C23.2806 9.40108 23.2806 9.70921 23.0941 9.89837V9.89624Z" fill="black"/>
</g>
</g>
<defs>
<clipPath id="clip0_10359_101753">
<rect width="74" height="19" fill="white"/>
</clipPath>
</defs>
</svg>
