<svg width="67" height="24" viewBox="0 0 67 24" fill="none" xmlns="http://www.w3.org/2000/svg">
<g clip-path="url(#clip0_9722_98150)">
<path d="M0 13.162L1.34426 10.9041C2.0948 11.5649 3.70791 12.2368 4.89534 12.2368C5.85872 12.2368 6.25079 11.9725 6.25079 11.5429C6.25079 10.3093 0.369671 11.587 0.369671 7.55576C0.369671 5.8045 1.91557 4.28453 4.7049 4.28453C6.41883 4.28453 7.8415 4.82423 8.92811 5.60624L7.69587 7.85314C7.09095 7.2804 5.93713 6.76274 4.7273 6.76274C3.97676 6.76274 3.47266 7.04911 3.47266 7.44562C3.47266 8.53603 9.33138 7.40156 9.33138 11.4768C9.33138 13.3713 7.63986 14.726 4.74971 14.726C2.92376 14.704 1.0642 14.1092 0 13.162Z" fill="#081F2C"/>
<path d="M9.60022 1.80633C9.60022 0.804038 10.418 0 11.4374 0C12.4568 0 13.2969 0.804038 13.2969 1.80633C13.2969 2.80863 12.468 3.63469 11.4374 3.63469C10.418 3.63469 9.60022 2.81964 9.60022 1.80633Z" fill="#E40046"/>
<path d="M13.0617 4.52685H9.83545V14.4617H13.0617V4.52685Z" fill="#081F2C"/>
<path d="M26.986 14.4617V8.41487C26.986 7.65489 26.6051 7.08215 25.6417 7.08215C24.7679 7.08215 24.1406 7.63286 23.8269 8.0514V14.4727H20.6007V8.41487C20.6007 7.65489 20.2423 7.08215 19.2789 7.08215C18.4051 7.08215 17.789 7.63286 17.4641 8.0514V14.4727H14.2379V4.52685H17.4641V5.39697L17.1281 6.13492C17.2513 5.98073 17.3745 5.83754 17.4641 5.73841C17.901 5.16567 19.2005 4.27352 20.7912 4.27352C22.2586 4.27352 23.2332 4.86829 23.6589 6.04681C24.2414 5.1877 25.5633 4.27352 27.154 4.27352C29.0135 4.27352 30.1898 5.22074 30.1898 7.25838V14.4617H26.986Z" fill="#081F2C"/>
<path d="M34.6146 13.2832C34.5362 13.184 34.4802 13.0629 34.4242 12.9417L34.6146 14.0431V18.2506H31.3884V4.52685H34.6146V5.68334C35.41 4.73612 36.4518 4.28453 37.6056 4.28453C40.1373 4.28453 42.0417 6.13492 42.0417 9.48325C42.0417 12.8536 40.1373 14.704 37.6056 14.704C36.4742 14.704 35.4548 14.2744 34.6146 13.2832ZM38.7594 9.48325C38.7594 8.00734 37.7961 7.08215 36.5414 7.08215C35.8469 7.08215 35.0179 7.45663 34.6146 7.98531V11.0032C35.0067 11.5209 35.8469 11.9064 36.5414 11.9064C37.7961 11.9064 38.7594 10.9812 38.7594 9.48325Z" fill="#081F2C"/>
<path d="M42.5681 14.4617V0.737953H45.7943V14.4507H42.5681V14.4617Z" fill="#081F2C"/>
<path d="M46.332 9.48325C46.332 6.60854 48.5276 4.28453 51.6867 4.28453C54.6776 4.28453 56.8508 6.44332 56.8508 9.81368V10.5296H49.9055L49.6367 10.1771C49.6255 10.2873 49.6255 10.3974 49.6591 10.5296C49.8943 11.4107 50.7233 12.1597 52.1907 12.1597C52.8965 12.1597 54.0727 11.8513 54.6552 11.3116L56.0555 13.3933C55.0473 14.2744 53.3782 14.715 51.8323 14.715C48.7069 14.704 46.332 12.7104 46.332 9.48325ZM51.6867 6.82882C50.2864 6.82882 49.7375 7.65489 49.6143 8.37081H53.7703C53.6918 7.6659 53.1653 6.82882 51.6867 6.82882Z" fill="#081F2C"/>
<path d="M63.4153 14.4617L61.4885 11.4548L59.5058 14.4617H55.9883L59.4385 9.36209L56.2011 4.52685H59.741L61.4773 7.22533L61.6006 7.41258V7.02708L63.1913 4.52685H66.7311L63.5049 9.36209L66.9552 14.4617H63.4153Z" fill="#081F2C"/>
<path d="M54.2183 20.7728C54.2183 20.3763 54.0055 20.2331 53.6806 20.2331C53.367 20.2331 53.1653 20.3984 53.0421 20.5525V22.6453H51.9779V19.3961H53.0309V19.6824L52.8965 19.9247C53.0981 19.6934 53.6134 19.319 54.1623 19.319C54.9129 19.319 55.2601 19.7485 55.2601 20.3433V22.6453H54.2183V20.7728Z" fill="#081F2C"/>
<path d="M57.8142 22.1716C57.6125 22.4029 57.1196 22.7334 56.5707 22.7334C55.8202 22.7334 55.4841 22.3148 55.4841 21.7201V19.4071H56.5371V21.2905C56.5371 21.676 56.7388 21.8192 57.086 21.8192C57.3885 21.8192 57.5901 21.654 57.7134 21.4998V19.4071H58.7664V22.6563H57.7134V22.414L57.8142 22.1716Z" fill="#081F2C"/>
<path d="M63.9642 19.319C64.9388 19.319 65.6558 20.0239 65.6558 21.1253V21.3456H63.3817L63.2921 21.2244C63.2921 21.2685 63.3033 21.3235 63.3145 21.3676C63.3929 21.654 63.673 21.9183 64.1547 21.9183C64.4459 21.9183 64.782 21.8082 64.9612 21.643L65.4093 22.2928C65.0845 22.5792 64.5356 22.7224 64.0315 22.7224C63.0121 22.7224 62.2279 22.0725 62.2279 21.0151C62.2167 20.0789 62.9336 19.319 63.9642 19.319ZM63.2921 20.6847H64.6476C64.6252 20.4534 64.4459 20.123 63.9642 20.123C63.505 20.123 63.3369 20.4424 63.2921 20.6847Z" fill="#081F2C"/>
<path d="M65.8685 19.4071H66.9215V22.6563H65.8685V19.4071Z" fill="#081F2C"/>
<path d="M61.3653 19.4071L60.6596 21.3346L60.682 21.6319L59.8754 19.4071H58.9792V19.9247L60.0659 22.6453H61.1861L62.4855 19.4071H61.3653Z" fill="#081F2C"/>
<path d="M65.7902 18.4048C65.7902 18.0743 66.059 17.81 66.3951 17.81C66.7311 17.81 67 18.0743 67 18.4048C67 18.7352 66.7311 18.9995 66.3951 18.9995C66.059 18.9885 65.7902 18.7352 65.7902 18.4048Z" fill="#E40046"/>
<path d="M42.5681 22.6783V18.1735H43.2851V19.8697C43.5539 19.5172 43.9348 19.341 44.3493 19.341C45.2118 19.341 45.8279 20.0018 45.8279 21.0482C45.8279 22.1276 45.2006 22.7664 44.3493 22.7664C43.9236 22.7664 43.5427 22.5682 43.2851 22.2377V22.6783H42.5681ZM44.1476 22.1276C44.7189 22.1276 45.0774 21.676 45.0774 21.0372C45.0774 20.4094 44.7077 19.9578 44.1476 19.9578C43.8004 19.9578 43.4531 20.156 43.2851 20.3983V21.698C43.4531 21.9403 43.8004 22.1276 44.1476 22.1276Z" fill="#081F2C"/>
<path d="M46.5673 23.3171C46.6457 23.3502 46.7577 23.3722 46.8473 23.3722C47.0826 23.3722 47.2282 23.3061 47.329 23.0858L47.497 22.7113L46.1304 19.4071H46.9033L47.8667 21.8522L48.8413 19.4071H49.6142L48.0123 23.262C47.7883 23.8128 47.3962 23.989 46.8809 24C46.7801 24 46.5673 23.978 46.4776 23.9559L46.5673 23.3171Z" fill="#081F2C"/>
</g>
<defs>
<clipPath id="clip0_9722_98150">
<rect width="67" height="24" fill="white"/>
</clipPath>
</defs>
</svg>
