<svg width="80" height="15" viewBox="0 0 80 15" fill="none" xmlns="http://www.w3.org/2000/svg">
<g clip-path="url(#clip0_5527_77251)">
<path d="M74.5988 11.7145L71.5988 4.97547H73.6076L75.6565 9.80855L78.0244 4.97547H80L75.3304 14.2578H73.3217L74.5988 11.7145ZM67.2938 10.3192C67.4711 10.2797 67.6422 10.2174 67.8027 10.1338C67.9578 10.053 68.1019 9.95362 68.2317 9.83781C68.3613 9.72173 68.4733 9.58811 68.5643 9.44101C68.6596 9.2865 68.7334 9.12025 68.7838 8.94665C68.8383 8.75724 68.8652 8.56124 68.8636 8.36447C68.8655 8.16554 68.8386 7.96736 68.7838 7.77578C68.7334 7.60219 68.6596 7.43594 68.5643 7.28142C68.4728 7.13373 68.3609 6.99912 68.2317 6.88137C68.1035 6.76456 67.959 6.66601 67.8027 6.58865C67.6411 6.50913 67.4702 6.44906 67.2938 6.40978C67.1084 6.36821 66.9187 6.34747 66.7284 6.34798C66.5392 6.34735 66.3506 6.36808 66.1663 6.40978C65.9921 6.44908 65.8234 6.50916 65.6641 6.58865C65.5084 6.66705 65.3641 6.7655 65.2351 6.88137C65.1043 6.99846 64.9912 7.13316 64.8992 7.28142C64.804 7.43561 64.7313 7.60199 64.683 7.77578C64.6304 7.96773 64.6047 8.16576 64.6065 8.36447C64.605 8.56102 64.6307 8.75687 64.683 8.94665C64.7313 9.12045 64.804 9.28683 64.8992 9.44101C64.9906 9.58869 65.1038 9.72238 65.2351 9.83781C65.3657 9.95266 65.5097 10.052 65.6641 10.1338C65.8223 10.2173 65.9912 10.2797 66.1663 10.3192C66.3506 10.3609 66.5392 10.3817 66.7284 10.381C66.9187 10.3816 67.1084 10.3608 67.2938 10.3192M65.2683 11.8283C64.9604 11.7517 64.664 11.6357 64.387 11.4835C63.8474 11.1868 63.402 10.7501 63.0999 10.2216C62.9442 9.94838 62.8257 9.65645 62.7473 9.35322C62.5833 8.70163 62.5833 8.02084 62.7473 7.36925C62.8253 7.06694 62.9439 6.77604 63.0999 6.50411C63.4034 5.9775 63.8485 5.54221 64.387 5.24543C64.6641 5.09326 64.9604 4.97734 65.2683 4.90068C65.5977 4.81899 65.9363 4.77855 66.2761 4.78034C66.4595 4.77993 66.6428 4.7908 66.8248 4.81286C66.9923 4.83313 67.1579 4.86575 67.3204 4.91043C67.471 4.95222 67.6187 5.00328 67.7627 5.0633C67.8975 5.11938 68.0276 5.18571 68.1518 5.26169C68.2687 5.33321 68.3779 5.41602 68.4778 5.50887C68.5713 5.59564 68.658 5.68914 68.7372 5.78858V4.97547H70.6462V11.7535H68.7372V10.9404C68.6151 11.0901 68.4756 11.2255 68.3215 11.3437C68.1511 11.4745 67.9644 11.5838 67.766 11.6689C67.5454 11.7637 67.3144 11.8335 67.0776 11.8771C66.8134 11.926 66.545 11.95 66.2761 11.9486C65.9363 11.9504 65.5977 11.91 65.2683 11.8283M58.3378 6.69274C58.6112 6.69764 58.8841 6.66702 59.1493 6.60167C59.356 6.55061 59.5489 6.45629 59.7147 6.32522C59.8643 6.20315 59.9789 6.04512 60.0472 5.86663C60.1217 5.66439 60.1578 5.45056 60.1537 5.23566C60.1579 5.0218 60.1219 4.80901 60.0472 4.60795C59.9787 4.43139 59.8641 4.2755 59.7147 4.15586C59.5481 4.02674 59.3554 3.93363 59.1493 3.88266C58.8841 3.8174 58.6112 3.78677 58.3378 3.79159H56.462V6.69274L58.3378 6.69274ZM54.4864 2.19141H58.524C59.1582 2.19141 59.708 2.2673 60.1736 2.41908C60.6392 2.57086 61.0228 2.78118 61.3244 3.05004C61.6243 3.31663 61.8557 3.64871 61.9995 4.01926C62.1506 4.4099 62.2261 4.82456 62.2224 5.24216C62.2271 5.6588 62.1515 6.07258 61.9995 6.46182C61.8533 6.82929 61.6222 7.15876 61.3244 7.42453C61.0228 7.69563 60.6392 7.90704 60.1736 8.05875C59.708 8.21064 59.1581 8.28653 58.524 8.28642H56.462V11.7535H54.4864V2.19141ZM46.0032 4.97547H47.8989V5.78857C48.0159 5.63075 48.1547 5.48955 48.3114 5.36901C48.4771 5.24183 48.658 5.1348 48.8501 5.05027C49.0618 4.9577 49.284 4.89001 49.512 4.84862C49.7653 4.80205 50.0225 4.77918 50.2803 4.78032C50.6816 4.7747 51.0806 4.84084 51.4576 4.97547C51.7935 5.09648 52.0979 5.28862 52.349 5.53813C52.6012 5.79671 52.792 6.10656 52.9077 6.44556C53.0412 6.83536 53.1064 7.24441 53.1006 7.65545V11.7535H51.2049V8.13681C51.2094 7.87242 51.1713 7.60898 51.0918 7.35623C51.026 7.14756 50.9161 6.95474 50.7692 6.79031C50.6279 6.63757 50.4511 6.52041 50.2537 6.44881C50.0299 6.36965 49.7932 6.33107 49.5552 6.33498C49.3162 6.33128 49.0785 6.36984 48.8535 6.44881C48.6548 6.51981 48.4767 6.63701 48.3346 6.79031C48.1877 6.95474 48.0778 7.14756 48.012 7.35623C47.9326 7.60898 47.8944 7.87242 47.8989 8.13681V11.7535H46.0032V4.97547ZM41.3382 10.2997C41.5192 10.2569 41.6944 10.1936 41.8604 10.111C42.0183 10.0321 42.1629 9.93007 42.2894 9.80853C42.4146 9.68859 42.5231 9.55298 42.612 9.40523C42.7026 9.25306 42.7699 9.08868 42.8116 8.91737C42.8568 8.73201 42.8791 8.54201 42.8781 8.35145C42.8793 8.16195 42.8569 7.97302 42.8116 7.78878C42.7277 7.44922 42.5466 7.14009 42.2894 6.89763C42.1613 6.77714 42.0169 6.67428 41.8604 6.5919C41.6958 6.50556 41.5202 6.44102 41.3382 6.40001C41.1408 6.35568 40.9388 6.33385 40.7362 6.33496C40.5359 6.33408 40.3361 6.35591 40.1409 6.40001C39.9598 6.44064 39.7853 6.50519 39.6221 6.5919C39.4669 6.67485 39.3237 6.77766 39.1964 6.89763C39.0709 7.01575 38.9644 7.15171 38.8804 7.30092C38.7946 7.45421 38.7276 7.61688 38.6808 7.78555C38.6306 7.97012 38.606 8.16047 38.6077 8.35147C38.6065 8.54243 38.6311 8.73271 38.6808 8.91739C38.7264 9.08749 38.7934 9.25137 38.8804 9.40525C38.9654 9.55378 39.0718 9.6896 39.1963 9.80855C39.322 9.92956 39.4655 10.0315 39.6221 10.111C39.7867 10.1939 39.9609 10.2573 40.1409 10.2997C40.3358 10.346 40.5357 10.3689 40.7362 10.368C40.939 10.3691 41.1411 10.3462 41.3382 10.2997M39.6187 11.825C39.2767 11.7472 38.9451 11.6304 38.6309 11.477C38.3354 11.3329 38.0613 11.1502 37.8161 10.9339C37.5785 10.7237 37.3725 10.4817 37.2041 10.2151C37.0335 9.94373 36.9025 9.65033 36.815 9.34345C36.6332 8.69408 36.6332 8.00886 36.815 7.35949C36.9021 7.05351 37.0332 6.76114 37.2041 6.4911C37.3737 6.22537 37.5796 5.98354 37.8161 5.77233C38.0606 5.55426 38.3348 5.37038 38.6309 5.22592C38.9452 5.07262 39.2767 4.95582 39.6187 4.87791C40.3587 4.71312 41.127 4.71312 41.867 4.87791C42.2071 4.95513 42.5365 5.07196 42.8481 5.22592C43.1429 5.37252 43.4169 5.55622 43.663 5.77233C43.9031 5.98277 44.1124 6.22464 44.2849 6.4911C44.4578 6.76056 44.59 7.05305 44.6774 7.35949C44.8592 8.00886 44.8592 8.69408 44.6774 9.34345C44.5896 9.65079 44.4575 9.9443 44.2849 10.2151C44.1136 10.4824 43.9042 10.7245 43.663 10.9339C43.4162 11.1483 43.1424 11.3308 42.8481 11.477C42.5375 11.6307 42.2093 11.7475 41.8703 11.825C41.1293 11.9898 40.3598 11.9898 39.6187 11.825M32.2213 10.2997C32.4022 10.2569 32.5775 10.1936 32.7434 10.111C32.9013 10.0321 33.046 9.93007 33.1724 9.80853C33.2977 9.68859 33.4062 9.55298 33.4951 9.40523C33.5857 9.25309 33.653 9.0887 33.6946 8.91737C33.7398 8.73201 33.7622 8.54201 33.7611 8.35145C33.7623 8.16195 33.74 7.97302 33.6946 7.78878C33.6107 7.44922 33.4296 7.14008 33.1724 6.89763C33.0443 6.77714 32.9 6.67428 32.7434 6.5919C32.5788 6.50554 32.4032 6.44101 32.2213 6.40001C32.0238 6.35568 31.8218 6.33385 31.6193 6.33496C31.4189 6.33408 31.2191 6.35591 31.0239 6.40001C30.8429 6.44064 30.6683 6.50519 30.5051 6.5919C30.3499 6.67487 30.2068 6.77768 30.0794 6.89763C29.9539 7.01575 29.8474 7.15171 29.7634 7.30092C29.6777 7.45424 29.6107 7.6169 29.5639 7.78553C29.5136 7.97011 29.489 8.16045 29.4907 8.35145C29.4896 8.54241 29.5142 8.73269 29.5639 8.91737C29.6095 9.08745 29.6765 9.25132 29.7634 9.40523C29.8485 9.55376 29.9549 9.68958 30.0794 9.80853C30.2051 9.92952 30.3486 10.0315 30.5051 10.111C30.6697 10.1939 30.8439 10.2573 31.0239 10.2997C31.2188 10.3459 31.4187 10.3689 31.6193 10.368C31.822 10.3691 32.0242 10.3462 32.2213 10.2997M30.5018 11.825C30.1597 11.7472 29.8282 11.6304 29.514 11.4771C29.2185 11.333 28.9443 11.1502 28.6992 10.9339C28.4616 10.7237 28.2556 10.4817 28.0872 10.2151C27.9165 9.94376 27.7856 9.65037 27.6981 9.34349C27.5163 8.69412 27.5163 8.00889 27.6981 7.35952C27.7852 7.05354 27.9162 6.76117 28.0872 6.49113C28.2568 6.22542 28.4627 5.98359 28.6992 5.77236C28.9437 5.55431 29.2179 5.37043 29.514 5.22595C29.8282 5.07265 30.1598 4.95586 30.5018 4.87794C31.2417 4.71315 32.0101 4.71315 32.7501 4.87794C33.0902 4.95515 33.4196 5.07198 33.7312 5.22595C34.026 5.37254 34.3 5.55623 34.546 5.77236C34.7862 5.98278 34.9955 6.22466 35.168 6.49113C35.3409 6.76058 35.4731 7.05307 35.5604 7.35952C35.7422 8.00889 35.7422 8.69412 35.5604 9.34349C35.4727 9.65083 35.3406 9.94435 35.168 10.2151C34.9967 10.4825 34.7873 10.7245 34.546 10.9339C34.2993 11.1483 34.0255 11.3309 33.7312 11.4771C33.4206 11.6307 33.0923 11.7475 32.7534 11.825C32.0123 11.9898 31.2429 11.9898 30.5018 11.825M15.5393 2.19141H17.5348L20.9472 7.29117L24.3728 2.19141H26.3683V11.7535H24.3928V5.19663L21.5591 9.42476H20.3485L17.5149 5.19663V11.7535H15.5393V2.19141Z" fill="black"/>
<path d="M10.9828 3.90289C11.3775 3.90289 11.7633 3.78844 12.0915 3.57401C12.4196 3.35958 12.6754 3.05481 12.8265 2.69823C12.9775 2.34165 13.017 1.94928 12.94 1.57074C12.863 1.19219 12.673 0.84448 12.3939 0.571566C12.1148 0.298651 11.7592 0.112794 11.3721 0.0374973C10.985 -0.0377996 10.5838 0.000845529 10.2192 0.148546C9.85455 0.296246 9.54289 0.546367 9.32362 0.867281C9.10435 1.18819 8.98732 1.56549 8.98732 1.95144C8.9873 2.20772 9.03891 2.46148 9.13918 2.69825C9.23946 2.93502 9.38645 3.15015 9.57176 3.33136C9.75706 3.51257 9.97705 3.65631 10.2192 3.75438C10.4613 3.85244 10.7208 3.9029 10.9828 3.90289M4.86408 12.6917C3.90206 12.6917 2.96164 12.4127 2.16174 11.8901C1.36185 11.3674 0.738408 10.6245 0.370257 9.75534C0.00210698 8.88617 -0.0942175 7.92977 0.0934647 7.00707C0.281147 6.08437 0.744406 5.23682 1.42466 4.57159C2.10492 3.90636 2.97161 3.45333 3.91515 3.2698C4.85869 3.08626 5.83669 3.18046 6.72549 3.54048C7.61428 3.90051 8.37395 4.51018 8.90841 5.29241C9.44288 6.07464 9.72815 6.99429 9.72815 7.93506C9.72817 8.55972 9.60237 9.17826 9.35793 9.75537C9.11349 10.3325 8.75521 10.8569 8.30354 11.2986C7.85186 11.7403 7.31564 12.0906 6.7255 12.3297C6.13536 12.5687 5.50284 12.6917 4.86408 12.6917" fill="#7D00FF"/>
</g>
<defs>
<clipPath id="clip0_5527_77251">
<rect width="80" height="14.2574" fill="white"/>
</clipPath>
</defs>
</svg>
