<svg width="69" height="12" viewBox="0 0 69 12" fill="none" xmlns="http://www.w3.org/2000/svg">
<g clip-path="url(#clip0_7955_36581)">
<path d="M24.85 11.0289H14.1106C13.9286 11.0302 13.7495 10.9833 13.5916 10.8929C13.4336 10.8025 13.3025 10.6719 13.2114 10.5144C13.1204 10.3568 13.0727 10.1779 13.0732 9.99589C13.0738 9.81392 13.1226 9.6353 13.2147 9.4783L18.2916 0.685211C18.412 0.476868 18.5851 0.303871 18.7934 0.183595C19.0019 0.0633181 19.2382 0 19.4788 0C19.7195 0 19.9559 0.0633181 20.1642 0.183595C20.3726 0.303871 20.5457 0.476868 20.6661 0.685211L25.743 9.4783C25.8351 9.6353 25.8839 9.81392 25.8844 9.99589C25.885 10.1779 25.8373 10.3568 25.7463 10.5144C25.6553 10.6719 25.5241 10.8025 25.3661 10.8929C25.2082 10.9833 25.0291 11.0302 24.8471 11.0289H24.85ZM15.9039 8.96195H23.0597L19.4818 2.76396L15.9039 8.96195Z" fill="url(#paint0_linear_7955_36581)"/>
<path d="M67.8629 11.0289H57.1233C56.9416 11.03 56.7627 10.9829 56.6049 10.8924C56.4471 10.8019 56.316 10.6712 56.2254 10.5137C56.1343 10.3562 56.0869 10.1774 56.0874 9.99552C56.0883 9.81364 56.1371 9.63521 56.2291 9.4783L61.3043 0.685211C61.4248 0.476868 61.5977 0.303871 61.8061 0.183595C62.0145 0.0633181 62.2509 0 62.4915 0C62.7321 0 62.9685 0.0633181 63.1769 0.183595C63.3853 0.303871 63.5583 0.476868 63.6788 0.685211L68.7558 9.4783C68.8478 9.6353 68.8966 9.81392 68.897 9.99589C68.8979 10.1779 68.8501 10.3568 68.759 10.5144C68.6679 10.6719 68.5368 10.8025 68.3791 10.8929C68.2208 10.9833 68.0419 11.0302 67.8597 11.0289H67.8629ZM58.9182 8.96195H66.074L62.4947 2.76396L58.9182 8.96195Z" fill="black"/>
<path d="M39.2044 0.214844H37.8995C37.6156 0.214844 37.4744 0.361959 37.4744 0.656189V7.65596L31.2058 0.378142C31.1641 0.32752 31.1118 0.286663 31.0525 0.258449C30.9933 0.230235 30.9286 0.21535 30.863 0.214844H29.2447C28.9623 0.214844 28.8196 0.361959 28.8196 0.656189V10.5938C28.8196 10.8881 28.9667 11.0352 29.2447 11.0352H30.5496C30.8336 11.0352 30.9748 10.8881 30.9748 10.5938V3.43962L37.414 10.8925C37.4502 10.94 37.4973 10.9782 37.5513 11.0038C37.6053 11.0294 37.6647 11.0417 37.7245 11.0396H39.1956C39.4796 11.0396 39.6223 10.8925 39.6223 10.5983V0.656189C39.6267 0.361959 39.484 0.214844 39.2044 0.214844Z" fill="black"/>
<path d="M53.6438 10.3338L49.5024 5.37298L53.1272 0.935991C53.1898 0.850721 53.2233 0.747557 53.2229 0.641761C53.2312 0.584036 53.2256 0.525229 53.2072 0.469965C53.1884 0.414699 53.1576 0.364483 53.1162 0.323271C53.0752 0.282058 53.0246 0.250974 52.9694 0.232462C52.9142 0.213952 52.8553 0.20852 52.7978 0.216595H51.0029C50.9371 0.214808 50.8714 0.228673 50.812 0.257057C50.7522 0.285441 50.7002 0.327536 50.6602 0.379894L48.115 3.62673L45.5685 0.390192C45.5285 0.332648 45.4746 0.286067 45.4119 0.254712C45.3492 0.223357 45.2796 0.208228 45.2095 0.21071H43.4118C43.3541 0.202574 43.2953 0.207976 43.2401 0.226488C43.1849 0.245001 43.1348 0.276115 43.0937 0.317368C43.0526 0.358621 43.0216 0.40888 43.0033 0.464164C42.985 0.519447 42.9798 0.578235 42.9881 0.635873C42.9871 0.741738 43.0207 0.845031 43.0837 0.930108L46.707 5.37445L42.5806 10.3176C42.5069 10.3977 42.4664 10.5029 42.4673 10.6118C42.4673 10.8943 42.6145 11.0355 42.9087 11.0355H44.7947C44.8645 11.036 44.9334 11.0201 44.9957 10.9889C45.0582 10.9577 45.1123 10.9122 45.1537 10.856L48.1077 7.15162L51.0765 10.8899C51.1193 10.9379 51.1722 10.976 51.2315 11.0014C51.2909 11.0268 51.3548 11.0389 51.4192 11.037H53.3126C53.3701 11.045 53.429 11.0396 53.4837 11.0212C53.5389 11.0028 53.589 10.9718 53.63 10.9307C53.6714 10.8896 53.7022 10.8396 53.7206 10.7845C53.739 10.7294 53.7445 10.6708 53.7362 10.6133C53.7413 10.5118 53.7082 10.4122 53.6438 10.3338Z" fill="black"/>
<path d="M9.43704 5.35511C9.87459 4.80292 10.1102 4.11773 10.1049 3.4132C10.1108 2.99098 10.029 2.57213 9.86465 2.18316C9.7003 1.7942 9.457 1.44359 9.15014 1.1535C8.85123 0.850416 8.49408 0.611004 8.10014 0.449692C7.7062 0.28838 7.28369 0.208511 6.85809 0.214902H0.445311C0.385349 0.206285 0.324204 0.21176 0.266727 0.230893C0.209249 0.250025 0.157021 0.282289 0.114186 0.325124C0.0713515 0.367959 0.0390877 0.420187 0.0199551 0.477664C0.000822525 0.535141 -0.00465262 0.596284 0.00396422 0.65625V10.5939C0.00396422 10.8881 0.15108 11.0352 0.445311 11.0352H7.41272C7.83914 11.0437 8.26289 10.9657 8.65835 10.8059C9.05381 10.6461 9.41275 10.4078 9.71359 10.1055C10.0194 9.8161 10.2618 9.46631 10.4254 9.07835C10.589 8.69038 10.6702 8.27266 10.6639 7.85167C10.6756 7.36747 10.5702 6.88764 10.3565 6.45299C10.1429 6.01834 9.82749 5.64169 9.43704 5.35511ZM2.15774 2.58346C2.14967 2.52555 2.15515 2.46655 2.17373 2.41111C2.19232 2.35567 2.22351 2.3053 2.26486 2.26395C2.30621 2.2226 2.35658 2.19141 2.41202 2.17282C2.46746 2.15424 2.52646 2.14876 2.58437 2.15682H6.82277C6.96845 2.15701 7.11224 2.18957 7.2438 2.25216C7.37536 2.31475 7.49133 2.4058 7.58338 2.51873C7.78964 2.76662 7.90262 3.07893 7.90262 3.40142C7.90262 3.72392 7.78964 4.03623 7.58338 4.28412C7.49257 4.39895 7.37697 4.4918 7.24528 4.55573C7.11362 4.61966 6.96918 4.65306 6.82277 4.65338H2.58437C2.5264 4.66175 2.46727 4.65651 2.41168 4.63801C2.3561 4.61957 2.30559 4.58837 2.26417 4.54695C2.22275 4.50553 2.19156 4.45502 2.17309 4.39943C2.15461 4.34385 2.14935 4.28472 2.15774 4.22674V2.58346ZM8.138 8.72553C8.04673 8.83965 7.93104 8.93184 7.79939 8.99523C7.66774 9.05866 7.52353 9.09169 7.37739 9.09187H2.58437C2.30044 9.09187 2.15774 8.94476 2.15774 8.6505V7.03222C2.15774 6.73801 2.30485 6.5909 2.58437 6.5909H7.37739C7.52362 6.59145 7.66783 6.6248 7.79944 6.68846C7.93104 6.75208 8.04673 6.84445 8.138 6.95867C8.3502 7.20311 8.464 7.51775 8.45724 7.84136C8.46653 8.16589 8.35245 8.48182 8.138 8.72553Z" fill="black"/>
</g>
<defs>
<linearGradient id="paint0_linear_7955_36581" x1="15.1345" y1="12.4765" x2="23.8305" y2="3.78053" gradientUnits="userSpaceOnUse">
<stop stop-color="#0073D1"/>
<stop offset="0.06" stop-color="#0082CE"/>
<stop offset="0.22" stop-color="#00A0C9"/>
<stop offset="0.39" stop-color="#00B8C4"/>
<stop offset="0.57" stop-color="#00C9C1"/>
<stop offset="0.76" stop-color="#00D3C0"/>
<stop offset="1" stop-color="#00D6BF"/>
</linearGradient>
<clipPath id="clip0_7955_36581">
<rect width="69" height="11.04" fill="white"/>
</clipPath>
</defs>
</svg>
